<mxfile host="app.diagrams.net" modified="2023-11-14T11:26:24.518Z" agent="Mozilla/5.0 (Windows NT 10.0; Win64; x64) AppleWebKit/537.36 (KHTML, like Gecko) Chrome/116.0.0.0 Safari/537.36 OPR/102.0.0.0" etag="wLslrxkXUWISZYEKtGiO" version="22.1.0" type="device">
  <diagram name="Page-1" id="O6uCRdsgLcV0ko7-5Eb7">
    <mxGraphModel dx="662" dy="399" grid="1" gridSize="10" guides="1" tooltips="1" connect="1" arrows="1" fold="1" page="1" pageScale="1" pageWidth="850" pageHeight="1100" math="0" shadow="0">
      <root>
        <mxCell id="0" />
        <mxCell id="1" parent="0" />
        <mxCell id="arMbi4NAVpgcn0A1QtGT-1" value="Validate Plans" style="rounded=1;whiteSpace=wrap;html=1;fillColor=#fff2cc;strokeColor=#d6b656;" vertex="1" parent="1">
          <mxGeometry x="195" y="120" width="120" height="40" as="geometry" />
        </mxCell>
        <mxCell id="arMbi4NAVpgcn0A1QtGT-2" value="Resolve Collisions" style="rounded=1;whiteSpace=wrap;html=1;fillColor=#fff2cc;strokeColor=#d6b656;" vertex="1" parent="1">
          <mxGeometry x="195" y="219" width="120" height="40" as="geometry" />
        </mxCell>
        <mxCell id="arMbi4NAVpgcn0A1QtGT-3" value="Execute Plans" style="rounded=1;whiteSpace=wrap;html=1;fillColor=#fff2cc;strokeColor=#d6b656;" vertex="1" parent="1">
          <mxGeometry x="425" y="120" width="120" height="40" as="geometry" />
        </mxCell>
        <mxCell id="arMbi4NAVpgcn0A1QtGT-4" value="" style="endArrow=classic;html=1;rounded=0;exitX=1;exitY=0.5;exitDx=0;exitDy=0;entryX=0;entryY=0.5;entryDx=0;entryDy=0;" edge="1" parent="1" source="arMbi4NAVpgcn0A1QtGT-1" target="arMbi4NAVpgcn0A1QtGT-3">
          <mxGeometry width="50" height="50" relative="1" as="geometry">
            <mxPoint x="335" y="210" as="sourcePoint" />
            <mxPoint x="385" y="160" as="targetPoint" />
          </mxGeometry>
        </mxCell>
        <mxCell id="arMbi4NAVpgcn0A1QtGT-5" value="&amp;nbsp;Plans Valid&amp;nbsp;" style="edgeLabel;html=1;align=center;verticalAlign=middle;resizable=0;points=[];" vertex="1" connectable="0" parent="arMbi4NAVpgcn0A1QtGT-4">
          <mxGeometry x="0.0545" y="1" relative="1" as="geometry">
            <mxPoint x="-9" as="offset" />
          </mxGeometry>
        </mxCell>
        <mxCell id="arMbi4NAVpgcn0A1QtGT-6" value="" style="endArrow=classic;html=1;rounded=0;exitX=0.25;exitY=1;exitDx=0;exitDy=0;entryX=0.25;entryY=0;entryDx=0;entryDy=0;" edge="1" parent="1" source="arMbi4NAVpgcn0A1QtGT-1" target="arMbi4NAVpgcn0A1QtGT-2">
          <mxGeometry width="50" height="50" relative="1" as="geometry">
            <mxPoint x="335" y="210" as="sourcePoint" />
            <mxPoint x="385" y="160" as="targetPoint" />
          </mxGeometry>
        </mxCell>
        <mxCell id="arMbi4NAVpgcn0A1QtGT-7" value="Collisions&lt;br&gt;Found" style="edgeLabel;html=1;align=center;verticalAlign=middle;resizable=0;points=[];" vertex="1" connectable="0" parent="arMbi4NAVpgcn0A1QtGT-6">
          <mxGeometry x="-0.09" y="1" relative="1" as="geometry">
            <mxPoint y="-3" as="offset" />
          </mxGeometry>
        </mxCell>
        <mxCell id="arMbi4NAVpgcn0A1QtGT-8" value="" style="endArrow=classic;html=1;rounded=0;exitX=0.75;exitY=0;exitDx=0;exitDy=0;entryX=0.75;entryY=1;entryDx=0;entryDy=0;" edge="1" parent="1" source="arMbi4NAVpgcn0A1QtGT-2" target="arMbi4NAVpgcn0A1QtGT-1">
          <mxGeometry width="50" height="50" relative="1" as="geometry">
            <mxPoint x="335" y="210" as="sourcePoint" />
            <mxPoint x="385" y="160" as="targetPoint" />
          </mxGeometry>
        </mxCell>
        <mxCell id="arMbi4NAVpgcn0A1QtGT-9" value="Collisions&lt;br&gt;Resolved" style="edgeLabel;html=1;align=center;verticalAlign=middle;resizable=0;points=[];" vertex="1" connectable="0" parent="arMbi4NAVpgcn0A1QtGT-8">
          <mxGeometry x="0.0441" y="-1" relative="1" as="geometry">
            <mxPoint x="-2" y="5" as="offset" />
          </mxGeometry>
        </mxCell>
        <mxCell id="arMbi4NAVpgcn0A1QtGT-10" value="From&lt;br&gt;Check Agent Queue" style="text;html=1;strokeColor=#000000;fillColor=#FFFFFF;align=center;verticalAlign=middle;whiteSpace=wrap;rounded=0;fontColor=#333333;" vertex="1" parent="1">
          <mxGeometry x="40" y="120" width="114" height="40" as="geometry" />
        </mxCell>
        <mxCell id="arMbi4NAVpgcn0A1QtGT-11" value="" style="endArrow=classic;html=1;rounded=0;exitX=1;exitY=0.5;exitDx=0;exitDy=0;entryX=0;entryY=0.5;entryDx=0;entryDy=0;" edge="1" parent="1" source="arMbi4NAVpgcn0A1QtGT-10" target="arMbi4NAVpgcn0A1QtGT-1">
          <mxGeometry width="50" height="50" relative="1" as="geometry">
            <mxPoint x="194" y="140" as="sourcePoint" />
            <mxPoint x="354" y="190" as="targetPoint" />
          </mxGeometry>
        </mxCell>
        <mxCell id="arMbi4NAVpgcn0A1QtGT-12" value="To&lt;br&gt;End Step" style="text;html=1;strokeColor=#000000;fillColor=#FFFFFF;align=center;verticalAlign=middle;whiteSpace=wrap;rounded=0;fontColor=#333333;" vertex="1" parent="1">
          <mxGeometry x="589" y="120" width="60" height="40" as="geometry" />
        </mxCell>
        <mxCell id="arMbi4NAVpgcn0A1QtGT-13" value="" style="endArrow=classic;html=1;rounded=0;exitX=1;exitY=0.5;exitDx=0;exitDy=0;entryX=0;entryY=0.5;entryDx=0;entryDy=0;" edge="1" parent="1" source="arMbi4NAVpgcn0A1QtGT-3" target="arMbi4NAVpgcn0A1QtGT-12">
          <mxGeometry width="50" height="50" relative="1" as="geometry">
            <mxPoint x="264" y="240" as="sourcePoint" />
            <mxPoint x="314" y="190" as="targetPoint" />
          </mxGeometry>
        </mxCell>
        <mxCell id="arMbi4NAVpgcn0A1QtGT-14" value="To&lt;br&gt;Simulation Crash" style="text;html=1;strokeColor=#000000;fillColor=#FFFFFF;align=center;verticalAlign=middle;whiteSpace=wrap;rounded=0;fontColor=#333333;" vertex="1" parent="1">
          <mxGeometry x="544" y="220" width="105" height="40" as="geometry" />
        </mxCell>
        <mxCell id="arMbi4NAVpgcn0A1QtGT-15" value="" style="endArrow=classic;html=1;rounded=0;exitX=1;exitY=0.5;exitDx=0;exitDy=0;entryX=0;entryY=0.5;entryDx=0;entryDy=0;" edge="1" parent="1" source="arMbi4NAVpgcn0A1QtGT-2" target="arMbi4NAVpgcn0A1QtGT-14">
          <mxGeometry width="50" height="50" relative="1" as="geometry">
            <mxPoint x="264" y="240" as="sourcePoint" />
            <mxPoint x="314" y="190" as="targetPoint" />
          </mxGeometry>
        </mxCell>
        <mxCell id="arMbi4NAVpgcn0A1QtGT-16" value="&amp;nbsp;Collisions Could Not Resolve&amp;nbsp;" style="edgeLabel;html=1;align=center;verticalAlign=middle;resizable=0;points=[];" vertex="1" connectable="0" parent="arMbi4NAVpgcn0A1QtGT-15">
          <mxGeometry x="-0.127" y="1" relative="1" as="geometry">
            <mxPoint as="offset" />
          </mxGeometry>
        </mxCell>
      </root>
    </mxGraphModel>
  </diagram>
</mxfile>
